<?xml version="1.0" encoding="UTF-8"?><svg id="Layer_1" xmlns="http://www.w3.org/2000/svg" viewBox="0 0 471.07 325.11"><defs><style>.cls-1{fill:#e0dcd7;}</style></defs><path class="cls-1" d="m0,194.89C0,110.12,48.07,36.71,138.96,0l84.78,54.18c-57.68,23.6-104,50.69-124.1,96.14l4.37,3.5c7.87-8.74,16.61-12.23,27.97-12.23,43.7,0,89.14,27.09,89.14,86.52,0,67.3-42.82,97.01-107.5,97.01C34.08,325.11,0,265.68,0,194.89Zm247.33,0c0-84.78,48.07-158.19,138.96-194.89l84.77,54.18c-57.68,23.6-104,50.69-124.1,96.14l4.37,3.5c7.87-8.74,16.61-12.23,27.97-12.23,43.7,0,89.14,27.09,89.14,86.52,0,67.3-42.83,97.01-107.5,97.01-79.53,0-113.62-59.43-113.62-130.22Z"/></svg>